<svg width="14" height="14" viewBox="0 0 14 14" fill="none" xmlns="http://www.w3.org/2000/svg">
<g id="etoile">
<path id="Vector" d="M6.45988 1.53588C6.64654 1.04354 7.35296 1.04354 7.54021 1.53588L8.74771 4.88071C8.78984 4.98967 8.86402 5.08329 8.96045 5.14921C9.05689 5.21514 9.17106 5.25027 9.28788 5.24996H12.2553C12.8036 5.24996 13.0428 5.93246 12.6117 6.26671L10.5 8.16663C10.4055 8.23934 10.3363 8.34015 10.3026 8.45459C10.2688 8.56903 10.2722 8.69122 10.3122 8.80363L11.0834 12.072C11.2712 12.597 10.6634 13.048 10.2037 12.7248L7.33546 10.9048C7.23724 10.8358 7.1201 10.7987 7.00004 10.7987C6.87999 10.7987 6.76285 10.8358 6.66463 10.9048L3.79638 12.7248C3.33729 13.048 2.72888 12.5965 2.91671 12.072L3.68788 8.80363C3.72788 8.69122 3.73125 8.56903 3.69751 8.45459C3.66376 8.34015 3.59464 8.23934 3.50004 8.16663L1.38838 6.26671C0.956711 5.93246 1.19704 5.24996 1.74421 5.24996H4.71163C4.82846 5.25035 4.94267 5.21525 5.03912 5.14932C5.13558 5.08338 5.20974 4.98971 5.25179 4.88071L6.45929 1.53588H6.45988Z" fill="#FFD057" stroke="#FFD057" stroke-linecap="round" stroke-linejoin="round"/>
</g>
</svg>
