<svg width="25" height="25" viewBox="0 0 25 25" fill="none" xmlns="http://www.w3.org/2000/svg">
<g id="uil:arrow-right">
<path id="Vector" d="M18.2412 12.12C18.1936 11.9973 18.1222 11.8851 18.0312 11.79L13.0312 6.79C12.9379 6.69676 12.8272 6.6228 12.7054 6.57234C12.5836 6.52188 12.453 6.49591 12.3212 6.49591C12.0549 6.49591 11.7995 6.6017 11.6112 6.79C11.5179 6.88324 11.444 6.99393 11.3935 7.11575C11.343 7.23758 11.3171 7.36814 11.3171 7.5C11.3171 7.7663 11.4229 8.0217 11.6112 8.21L14.9112 11.5H7.32117C7.05595 11.5 6.8016 11.6054 6.61406 11.7929C6.42652 11.9804 6.32117 12.2348 6.32117 12.5C6.32117 12.7652 6.42652 13.0196 6.61406 13.2071C6.8016 13.3946 7.05595 13.5 7.32117 13.5H14.9112L11.6112 16.79C11.5174 16.883 11.443 16.9936 11.3923 17.1154C11.3415 17.2373 11.3154 17.368 11.3154 17.5C11.3154 17.632 11.3415 17.7627 11.3923 17.8846C11.443 18.0064 11.5174 18.117 11.6112 18.21C11.7041 18.3037 11.8147 18.3781 11.9366 18.4289C12.0584 18.4797 12.1892 18.5058 12.3212 18.5058C12.4532 18.5058 12.5839 18.4797 12.7057 18.4289C12.8276 18.3781 12.9382 18.3037 13.0312 18.21L18.0312 13.21C18.1222 13.1149 18.1936 13.0028 18.2412 12.88C18.3412 12.6365 18.3412 12.3635 18.2412 12.12Z" fill="white"/>
</g>
</svg>
